<?xml version="1.0" encoding="UTF-8" standalone="no" ?>
<!DOCTYPE svg PUBLIC "-//W3C//DTD SVG 1.1//EN" "http://www.w3.org/Graphics/SVG/1.1/DTD/svg11.dtd">
<svg xmlns="http://www.w3.org/2000/svg" xmlns:xlink="http://www.w3.org/1999/xlink" version="1.1" width="1080" height="1080" viewBox="0 0 1080 1080" xml:space="preserve">
<desc>Created with Fabric.js 5.2.4</desc>
<defs>
</defs>
<rect x="0" y="0" width="100%" height="100%" fill="transparent"></rect>
<g transform="matrix(1 0 0 1 540 540)" id="9a600437-17f8-45cb-82bb-dc8e1ed3d3e8"  >
<rect style="stroke: none; stroke-width: 1; stroke-dasharray: none; stroke-linecap: butt; stroke-dashoffset: 0; stroke-linejoin: miter; stroke-miterlimit: 4; fill: rgb(255,255,255); fill-rule: nonzero; opacity: 1; visibility: hidden;" vector-effect="non-scaling-stroke"  x="-540" y="-540" rx="0" ry="0" width="1080" height="1080" />
</g>
<g transform="matrix(1 0 0 1 540 540)" id="6f8bfb6b-40ba-407d-93d4-86b6d8dcfa10"  >
</g>
<g transform="matrix(22.62 0 0 22.62 511.82 540)"  >
<g style=""   >
		<g transform="matrix(1 0 0 1 -3.09 3.62)" id="Mask"  >
<path style="stroke: none; stroke-width: 1; stroke-dasharray: none; stroke-linecap: butt; stroke-dashoffset: 0; stroke-linejoin: miter; stroke-miterlimit: 4; fill: rgb(105,108,255); fill-rule: evenodd; opacity: 1;" vector-effect="non-scaling-stroke"  transform=" translate(-9.41, -16.62)" d="M 13.7918663 0.358365126 L 3.39788168 7.44174259 C 0.566865006 9.69408886 -0.379795268 12.4788597 0.557900856 15.7960551 C 0.68998853 16.2305145 1.09562888 17.7872135 3.12357076 19.2293357 C 3.8146334 19.7207684 5.32369333 20.3834223 7.65075054 21.2172976 L 7.59773219 21.2525164 L 2.63468769 24.5493413 C 0.445452254 26.3002124 0.0884951797 28.5083815 1.56381646 31.1738486 C 2.83770406 32.8170431 5.20850219 33.2640127 7.09180128 32.5391577 C 8.347334 32.0559211 11.4559176 30.0011079 16.4175519 26.3747182 C 18.0338572 24.4997857 18.6973423 22.4544883 18.4080071 20.2388261 C 17.963753 17.5346866 16.1776345 15.5799961 13.0496516 14.3747546 L 10.9194936 13.4715819 L 18.6192054 7.984237 L 13.7918663 0.358365126 Z" stroke-linecap="round" />
</g>
		<g transform="matrix(1 0 0 1 -0.89 -5.6)" id="Path-3"  >
<path style="stroke: none; stroke-width: 1; stroke-dasharray: none; stroke-linecap: butt; stroke-dashoffset: 0; stroke-linejoin: miter; stroke-miterlimit: 4; fill: rgb(105,108,255); fill-rule: evenodd; opacity: 1;" vector-effect="non-scaling-stroke"  transform=" translate(-11.61, -7.4)" d="M 5.47320593 6.00457225 C 4.05321814 8.216144 4.36334763 10.0722806 6.40359441 11.5729822 C 8.61520715 12.571656 10.0999176 13.2171421 10.8577257 13.5094407 L 15.5088241 14.433041 L 18.6192054 7.984237 C 15.5364148 3.11535317 13.9273018 0.573395879 13.7918663 0.358365126 C 13.5790555 0.511491653 10.8061687 2.3935607 5.47320593 6.00457225 Z" stroke-linecap="round" />
</g>
		<g transform="matrix(1 0 0 1 -0.89 -5.6)" id="Path-3"  >
<path style="stroke: none; stroke-width: 1; stroke-dasharray: none; stroke-linecap: butt; stroke-dashoffset: 0; stroke-linejoin: miter; stroke-miterlimit: 4; fill: rgb(255,255,255); fill-opacity: 0.2; fill-rule: evenodd; opacity: 1;" vector-effect="non-scaling-stroke"  transform=" translate(-11.61, -7.4)" d="M 5.47320593 6.00457225 C 4.05321814 8.216144 4.36334763 10.0722806 6.40359441 11.5729822 C 8.61520715 12.571656 10.0999176 13.2171421 10.8577257 13.5094407 L 15.5088241 14.433041 L 18.6192054 7.984237 C 15.5364148 3.11535317 13.9273018 0.573395879 13.7918663 0.358365126 C 13.5790555 0.511491653 10.8061687 2.3935607 5.47320593 6.00457225 Z" stroke-linecap="round" />
</g>
		<g transform="matrix(1 0 0 1 -5.76 14.61)" id="Path-4"  >
<path style="stroke: none; stroke-width: 1; stroke-dasharray: none; stroke-linecap: butt; stroke-dashoffset: 0; stroke-linejoin: miter; stroke-miterlimit: 4; fill: rgb(105,108,255); fill-rule: evenodd; opacity: 1;" vector-effect="non-scaling-stroke"  transform=" translate(-6.74, -27.61)" d="M 7.50063644 21.2294429 L 12.3234468 23.3159332 C 14.1688022 24.7579751 14.397098 26.4880487 13.008334 28.506154 C 11.6195701 30.5242593 10.3099883 31.790241 9.07958868 32.3040991 C 5.78142938 33.4346997 4.13234973 34 4.13234973 34 C 4.13234973 34 2.75489982 33.0538207 2.37032616e-14 31.1614621 C -0.55822714 27.8186216 -0.55822714 26.0572515 -4.05231404e-15 25.8773518 C 0.83734071 25.6075023 2.77988457 22.8248993 3.3049379 22.52991 C 3.65497346 22.3332504 5.05353963 21.8997614 7.50063644 21.2294429 Z" stroke-linecap="round" />
</g>
		<g transform="matrix(1 0 0 1 -5.76 14.61)" id="Path-4"  >
<path style="stroke: none; stroke-width: 1; stroke-dasharray: none; stroke-linecap: butt; stroke-dashoffset: 0; stroke-linejoin: miter; stroke-miterlimit: 4; fill: rgb(255,255,255); fill-opacity: 0.2; fill-rule: evenodd; opacity: 1;" vector-effect="non-scaling-stroke"  transform=" translate(-6.74, -27.61)" d="M 7.50063644 21.2294429 L 12.3234468 23.3159332 C 14.1688022 24.7579751 14.397098 26.4880487 13.008334 28.506154 C 11.6195701 30.5242593 10.3099883 31.790241 9.07958868 32.3040991 C 5.78142938 33.4346997 4.13234973 34 4.13234973 34 C 4.13234973 34 2.75489982 33.0538207 2.37032616e-14 31.1614621 C -0.55822714 27.8186216 -0.55822714 26.0572515 -4.05231404e-15 25.8773518 C 0.83734071 25.6075023 2.77988457 22.8248993 3.3049379 22.52991 C 3.65497346 22.3332504 5.05353963 21.8997614 7.50063644 21.2294429 Z" stroke-linecap="round" />
</g>
		<g transform="matrix(0.5 0.87 -0.87 0.5 5.92 -9.67)" id="Triangle"  >
<path style="stroke: none; stroke-width: 1; stroke-dasharray: none; stroke-linecap: butt; stroke-dashoffset: 0; stroke-linejoin: miter; stroke-miterlimit: 4; fill: rgb(105,108,255); fill-rule: evenodd; opacity: 1;" vector-effect="non-scaling-stroke"  transform=" translate(-19, -11.67)" d="M 20.6 7.13333333 L 25.6 13.8 C 26.2627417 14.6836556 26.0836556 15.9372583 25.2 16.6 C 24.8538077 16.8596443 24.4327404 17 24 17 L 14 17 C 12.8954305 17 12 16.1045695 12 15 C 12 14.5672596 12.1403557 14.1461923 12.4 13.8 L 17.4 7.13333333 C 18.0627417 6.24967773 19.3163444 6.07059163 20.2 6.73333333 C 20.3516113 6.84704183 20.4862915 6.981722 20.6 7.13333333 Z" stroke-linecap="round" />
</g>
		<g transform="matrix(0.5 0.87 -0.87 0.5 5.92 -9.67)" id="Triangle"  >
<path style="stroke: none; stroke-width: 1; stroke-dasharray: none; stroke-linecap: butt; stroke-dashoffset: 0; stroke-linejoin: miter; stroke-miterlimit: 4; fill: rgb(255,255,255); fill-opacity: 0.2; fill-rule: evenodd; opacity: 1;" vector-effect="non-scaling-stroke"  transform=" translate(-19, -11.67)" d="M 20.6 7.13333333 L 25.6 13.8 C 26.2627417 14.6836556 26.0836556 15.9372583 25.2 16.6 C 24.8538077 16.8596443 24.4327404 17 24 17 L 14 17 C 12.8954305 17 12 16.1045695 12 15 C 12 14.5672596 12.1403557 14.1461923 12.4 13.8 L 17.4 7.13333333 C 18.0627417 6.24967773 19.3163444 6.07059163 20.2 6.73333333 C 20.3516113 6.84704183 20.4862915 6.981722 20.6 7.13333333 Z" stroke-linecap="round" />
</g>
</g>
</g>
</svg>